<?xml version="1.0" standalone="no"?>
<!DOCTYPE svg PUBLIC "-//W3C//DTD SVG 20010904//EN"
 "http://www.w3.org/TR/2001/REC-SVG-20010904/DTD/svg10.dtd">
<svg version="1.0" xmlns="http://www.w3.org/2000/svg"
 width="512.000000pt" height="512.000000pt" viewBox="0 0 512.000000 512.000000"
 preserveAspectRatio="xMidYMid meet">
<metadata>
Created by potrace 1.11, written by Peter Selinger 2001-2013
</metadata>
<g transform="translate(0.000000,512.000000) scale(0.100000,-0.100000)"
fill="#000000" stroke="none">
<path d="M234 3855 c-2 -5 -3 -593 -2 -1305 l3 -1295 230 0 c235 1 401 10 555
30 30 4 69 9 85 10 17 2 44 6 60 9 17 3 73 12 125 21 99 17 343 70 395 86 41
12 179 53 185 54 50 10 339 116 455 167 97 43 348 167 405 200 19 11 78 46
130 76 194 113 585 387 735 515 17 14 66 56 110 93 201 172 433 402 640 638
48 55 127 149 199 241 48 61 93 118 101 127 37 45 235 327 235 334 0 5 -168 9
-374 9 l-374 0 -101 -128 c-56 -70 -113 -142 -129 -159 -311 -361 -603 -637
-938 -889 -565 -424 -1232 -738 -1724 -814 -19 -3 -46 -7 -60 -10 -14 -3 -45
-7 -70 -9 -25 -3 -76 -7 -115 -11 -38 -4 -85 -8 -102 -10 l-33 -4 -2 1017 -3
1017 -309 0 c-197 0 -310 -4 -312 -10z"/>
</g>
</svg>
