<svg id="Lager_1" data-name="Lager 1" xmlns="http://www.w3.org/2000/svg" xmlns:xlink="http://www.w3.org/1999/xlink" width="268.2476" height="111.4141" viewBox="0 0 268.2476 111.4141"><defs><style>.cls-1{fill:none;}.cls-2{clip-path:url(#clip-path);}.cls-3{fill:#fff;}.cls-4{clip-path:url(#clip-path-2);}.cls-5{clip-path:url(#clip-path-3);}</style><clipPath id="clip-path" transform="translate(-13.8705 -10.0614)"><rect class="cls-1" x="13.7234" y="10.06" width="97.6679" height="110.6356"/></clipPath><clipPath id="clip-path-2" transform="translate(-13.8705 -10.0614)"><polygon class="cls-1" points="13.723 120.696 282.118 120.696 282.118 10.354 13.723 10.06 13.723 120.696"/></clipPath><clipPath id="clip-path-3" transform="translate(-13.8705 -10.0614)"><rect class="cls-1" x="154.633" y="10.3541" width="127.4848" height="58.2837"/></clipPath></defs><g class="cls-2"><path class="cls-3" d="M104.5236,38.6429l4.5258-11.2942a1.5074,1.5074,0,0,0-1.96-1.96L95.7743,29.9016a1.52,1.52,0,0,0-.8421.8447l-3.681,9.2306a1.5273,1.5273,0,0,1-.3341.5079L63.6291,67.77a1.5038,1.5038,0,0,1-2.1279,0L34.2025,40.466a1.5267,1.5267,0,0,1-.3341-.5052L30.174,30.7436a1.506,1.506,0,0,0-.8394-.8394l-11.3023-4.515a1.5069,1.5069,0,0,0-1.9568,1.96l4.5231,11.2942a1.5089,1.5089,0,0,0,.8367.8394l9.2359,3.71a1.4807,1.4807,0,0,1,.5052.3315L58.4591,70.8148a1.5087,1.5087,0,0,1,0,2.1279L39.5329,91.869a1.5257,1.5257,0,0,1-.508.3341L21.89,99.0572a1.4633,1.4633,0,0,0-.5053.3341l-3.5928,3.5928a7.4923,7.4923,0,0,0-.7859,9.6823,1.473,1.473,0,0,1-.1818,1.8953L14.3112,117.08a1.5045,1.5045,0,0,0,.0027,2.1305l.8929.8929a1.5069,1.5069,0,0,0,2.13,0L93.9485,43.5188a1.5283,1.5283,0,0,1,.5052-.3341l9.2306-3.7024a1.5134,1.5134,0,0,0,.8393-.8394" transform="translate(-13.8705 -10.0614)"/><path class="cls-3" d="M22.7946,115.7989a1.5217,1.5217,0,0,0,.5186,2.4834,7.5465,7.5465,0,0,0,8.1479-1.644l3.5714-3.5714a1.5842,1.5842,0,0,0,.3342-.5052l3.4939-8.7307a1.5062,1.5062,0,0,0-2.4647-1.6226Z" transform="translate(-13.8705 -10.0614)"/><path class="cls-3" d="M79.2988,27.8274l2.5823-15.6248a1.5033,1.5033,0,0,0-1.9888-1.6734,3.9592,3.9592,0,0,0-2.2268,1.9942,4.2773,4.2773,0,0,0,.1577,3.05A5.6738,5.6738,0,0,0,74.3614,16.6a3.3058,3.3058,0,0,0-.8634,4.7583,3.5889,3.5889,0,0,0,5.4373.6042c-.5748,3.1463-2.144,4.4829-3.7612,4.4749a3.6755,3.6755,0,0,1-2.8176-1.1334,1.4352,1.4352,0,0,0-1.9541-.04A4.7549,4.7549,0,0,1,67.16,26.4374c-2.0637,0-4.1274-2.3524-3.8975-4.6808A7.9252,7.9252,0,0,0,67.0048,22.89a3.731,3.731,0,0,0,3.6516-3.9591A3.3716,3.3716,0,0,0,67.5608,15.6,1.4844,1.4844,0,0,1,66.39,13.9589a3.7614,3.7614,0,0,0-.12-1.2885,3.9314,3.9314,0,0,0-7.4047,0,3.6654,3.6654,0,0,0-.1176,1.2858A1.4929,1.4929,0,0,1,57.5737,15.6a3.37,3.37,0,0,0-3.1009,3.3308A3.7345,3.7345,0,0,0,58.1271,22.89a7.86,7.86,0,0,0,3.7344-1.1335c.2112,2.3284-1.82,4.6808-3.8895,4.6808a4.7441,4.7441,0,0,1-3.2345-1.1736,1.4379,1.4379,0,0,0-1.9541.0375,3.6605,3.6605,0,0,1-2.8122,1.1361c-1.6173.008-3.2079-1.3286-3.7719-4.4749a3.5745,3.5745,0,0,0,5.4239-.6042,3.2955,3.2955,0,0,0-.85-4.7583,5.7164,5.7164,0,0,0-3.4618-1.0265,4.3485,4.3485,0,0,0,.16-3.05,3.9675,3.9675,0,0,0-2.2268-1.9942,1.5056,1.5056,0,0,0-1.9915,1.6734l2.569,15.6248a1.51,1.51,0,0,0,1.4889,1.2591H77.8125a1.5048,1.5048,0,0,0,1.4863-1.2591" transform="translate(-13.8705 -10.0614)"/><path class="cls-3" d="M46.4423,31.7052c.27,1.6039.5587,3.1918.8661,4.7957a1.5267,1.5267,0,0,0,1.489,1.2377h27.52a1.5281,1.5281,0,0,0,1.4943-1.2377c.3021-1.6066.5882-3.1918.8555-4.7984a1.52,1.52,0,0,0-1.4943-1.7643H47.9366a1.519,1.519,0,0,0-1.4943,1.767" transform="translate(-13.8705 -10.0614)"/><path class="cls-3" d="M106.4925,111.6209a1.52,1.52,0,0,0,2.4807-.5159,7.5049,7.5049,0,0,0-1.6467-8.1265h.0107l-3.59-3.5821a1.5,1.5,0,0,0-.5053-.3341l-8.7012-3.4778a1.507,1.507,0,0,0-1.6227,2.4673Z" transform="translate(-13.8705 -10.0614)"/><path class="cls-3" d="M104.2932,116.6281l3.4805,3.4778a1.5085,1.5085,0,0,0,2.1279.0054l.9008-.8955a1.5053,1.5053,0,0,0,0-2.1332L67.2213,73.4934a1.5069,1.5069,0,0,0-2.13,0l-.9063.9116a1.5069,1.5069,0,0,0,0,2.13l18.397,18.3809a1.447,1.447,0,0,1,.3341.5079L89.7617,112.56a1.5816,1.5816,0,0,0,.3342.5079l3.5847,3.5741a7.4887,7.4887,0,0,0,10.6126-.0134" transform="translate(-13.8705 -10.0614)"/><path class="cls-3" d="M30.23,77.9191c-2.1706,0-3.4805-1.08-3.4805-2.8416,0-1.81,1.31-2.9539,3.4591-2.9539,2.1519,0,3.4324,1.1442,3.4324,2.9539,0,1.7376-1.3259,2.8416-3.411,2.8416m-.0428-7.87c-1.8071,0-2.887-.8981-2.887-2.3149,0-1.4195,1.08-2.3337,2.887-2.3337s2.8577.9142,2.8577,2.3337c0,1.4168-1.0506,2.3149-2.8577,2.3149M30.23,80.2475c3.5259,0,6.4477-1.6707,6.4477-5.1031A4.1446,4.1446,0,0,0,33.32,71.0036v-.07A3.4412,3.4412,0,0,0,35.9235,67.55c0-2.6759-2.331-4.3386-5.7367-4.3386-3.3869,0-5.742,1.7322-5.742,4.3841a3.4365,3.4365,0,0,0,2.6251,3.39v.0641a4.2232,4.2232,0,0,0-3.379,4.1649c0,3.3629,3.01,5.0336,6.5387,5.0336m-10.7516-.39h0a1.5054,1.5054,0,0,0,1.5077-1.505V63.4384h-2.35c-.3689,2.3124-2.1973,3.2025-4.4375,3.272V68.718h2.2642A1.5059,1.5059,0,0,1,17.97,70.2257v8.1265a1.507,1.507,0,0,0,1.5077,1.505" transform="translate(-13.8705 -10.0614)"/><path class="cls-3" d="M108.3506,79.8567h.008a1.5048,1.5048,0,0,0,1.505-1.505V63.4406h-2.3577c-.3636,2.3043-2.1947,3.1971-4.4349,3.264v2.01h2.2669a1.51,1.51,0,0,1,1.5077,1.51v8.1265a1.5031,1.5031,0,0,0,1.505,1.505m-13.7-7.6373a3.3522,3.3522,0,0,1,.024-6.7044,3.2751,3.2751,0,0,1,3.4083,3.3415,3.2263,3.2263,0,0,1-3.4323,3.3629m.07,8.0276a5.89,5.89,0,0,0,4.4375-1.6948c1.4649-1.4623,2.061-3.8628,2.061-6.8595,0-3.3628-.663-5.6511-2.3578-7.0465a6.4447,6.4447,0,0,0-4.2557-1.4435c-3.5447,0-6.13,2.4272-6.13,5.6752a5.5724,5.5724,0,0,0,5.6965,5.6484,5.0283,5.0283,0,0,0,4.1622-2.1038H98.38a7.5626,7.5626,0,0,1-1.12,4.3012,2.9921,2.9921,0,0,1-2.609,1.235A2.68,2.68,0,0,1,91.7928,75.9H88.8416c.2967,2.4,2.5155,4.3466,5.8784,4.3466" transform="translate(-13.8705 -10.0614)"/></g><g class="cls-4"><path class="cls-3" d="M177.2512,86.6255q0,.9663-2.569,5.6378-3.6328,6.6081-4.7395,8.9819-2.57,5.4534-2.569,8.3,0,5.377.2914,11.07h-4.01q.2686-5.4052.2727-11.1205,0-3.1356-2.4032-8.6932-1.3593-3.1077-4.4883-8.982-2.406-4.543-2.4032-5.194h4.2824q0,.6777,3.6008,8.3136,3.6048,7.6388,3.6035,10.0914h.2085q0-2.4782,3.4351-9.92t3.435-8.4847Z" transform="translate(-13.8705 -10.0614)"/><path class="cls-3" d="M201.118,116.6728l-.1256,3.9429H184.1593q.2927-8.0958.294-17.8569,0-9.19-.294-16.1328H199.95l-.1684,3.8895q-5.746-.3127-12.1764-.3127.1284,4.0418.1257,10.936,5.5534,0,9.8988-.3127v3.8894q-4.6353-.2325-9.8988-.2352,0,6.7084.19,12.5828,6.933,0,13.1976-.39" transform="translate(-13.8705 -10.0614)"/><path class="cls-3" d="M223.1489,106.2035q-4.908-15.3215-4.908-16.2878h-.23q0,.81-5.0737,16.2878Zm7.9982,14.4112H226.739q0-1.7523-2.63-10.99H212.0578q-2.59,9.11-2.5876,10.99h-4.221q0-.9665,5.3891-16.6941,5.3892-15.73,5.3892-17.2956h4.8439q0,1.54,5.1378,17.0469t5.1379,16.9428" transform="translate(-13.8705 -10.0614)"/><path class="cls-3" d="M252.0253,96.1282q0-6.2153-6.7231-6.2125a20.1,20.1,0,0,0-4.0311.34q.1484,4.539.147,12.3475c.834.032,1.636.0508,2.4.0508q8.2081,0,8.2067-6.5253m6.3917,24.4865h-4.0312q-2.0049-7.49-2.9245-9.92-1.1668-3.0555-2.6518-3.9429a8.8163,8.8163,0,0,0-4.1969-.7031q-1.7724,0-3.1544.0508,0,8.4326.2513,14.5155h-3.8842q.3128-8.0958.3128-17.857,0-9.19-.3128-16.1327h2.9432q.9423,0,2.3818-.0776c.96-.0534,2.0637-.0775,3.2987-.0775q9.15,0,9.1477,7.8833,0,6.552-5.1379,9.2145v.262a6.9986,6.9986,0,0,1,3.7185,3.9937,134.4905,134.4905,0,0,1,4.24,12.7913" transform="translate(-13.8705 -10.0614)"/><path class="cls-3" d="M282.1181,111.8172q0,9.66-10.7543,9.6582a20.054,20.054,0,0,1-6.9771-1.1227l.7325-4.098a16.8192,16.8192,0,0,0,6.6616,1.5157q7.0974,0,7.1-5.0123a5.8584,5.8584,0,0,0-1.8365-4.3359,25.4176,25.4176,0,0,0-4.8465-3.2105,19.95,19.95,0,0,1-5.325-3.8895,10.1618,10.1618,0,0,1,.0428-12.4518,8.5817,8.5817,0,0,1,6.7872-2.7159q4.9681,0,6.806.81l-.5,4.1514a18.1853,18.1853,0,0,0-6.7472-1.2537q-5.365,0-5.3651,4.491a4.7835,4.7835,0,0,0,1.5451,3.6275,26.3309,26.3309,0,0,0,4.4268,2.7668,21.7462,21.7462,0,0,1,5.6378,4.02,10.0833,10.0833,0,0,1,2.6118,7.0492" transform="translate(-13.8705 -10.0614)"/></g><g class="cls-5"><path class="cls-3" d="M226.9531,46.8018q0,8.1039-6.4664,14.59-6.4638,6.4839-18.6349,7.2471l-.9249-4.908q9.6756-.8021,15.1062-4.8359a12.6872,12.6872,0,0,0,5.4293-10.6981q0-6.183-4.0553-8.72-4.0659-2.5342-11.8182-2.5369l.6389-4.75a19.5806,19.5806,0,0,0,10.1234-2.3551,7.2366,7.2366,0,0,0,3.9617-6.4691q0-3.87-2.4914-5.5068-2.49-1.632-7.7282-1.6387a25.0465,25.0465,0,0,0-6.8675.8421l.3823-5.6324q2.9352-1.0747,9.2279-1.0773,5.8141,0,8.9632,3.0982a9.9912,9.9912,0,0,1,3.1464,7.3647q0,8.7815-7.3834,11.85V33.07a11.4234,11.4234,0,0,1,6.7258,4.6273,15.1148,15.1148,0,0,1,2.6651,9.1049" transform="translate(-13.8705 -10.0614)"/><path class="cls-3" d="M174.1757,68.6362h-6.0976c.3208-7.7068.2085-15.705.2085-23.9892,0-9.6049.8341-19.8138.516-24.38l-12.62,8.18-1.5478-3.5794,15.7719-14.5155h3.7692q-.4371,17.6912-.4384,34.2945,0,11.7206.4384,23.9892" transform="translate(-13.8705 -10.0614)"/><path class="cls-3" d="M282.1173,38.45q0,12.8475-5.0978,21.5166-5.1,8.6652-14.3818,8.6718-8.91,0-13.6628-7.926-4.7475-7.9153-4.7529-20.1746,0-12.8394,5.1-21.5112,5.0885-8.6692,14.3818-8.6719,8.91,0,13.6573,7.918Q282.1133,26.2,282.1173,38.45m-4.8679,2.3952c0-7.0225-.6015-14.1011-2.7374-18.3488-2.1439-4.24-7.3486-7.6774-11.1178-7.6053-3.6222,0-9.5968,4.9027-11.5643,8.9312a37.9482,37.9482,0,0,0-3.35,15.844c0,7.0225,1.2831,12.6148,3.4217,16.8572,2.1412,4.2451,7.4983,7.9875,11.2675,7.9207,3.3094,0,7.9929-2.6892,10.1208-6.3969,2.1251-3.7078,3.959-10.634,3.959-17.2021" transform="translate(-13.8705 -10.0614)"/></g></svg>