<svg id="Lager_1" data-name="Lager 1" xmlns="http://www.w3.org/2000/svg" xmlns:xlink="http://www.w3.org/1999/xlink" width="215.0491mm" height="18.9995mm" viewBox="0 0 609.5881 53.8568"><defs><style>.cls-1{fill:none;}.cls-2{fill:#fff;}.cls-3{clip-path:url(#clip-path);}.cls-4{clip-path:url(#clip-path-2);}.cls-5{clip-path:url(#clip-path-3);}</style><clipPath id="clip-path" transform="translate(-16.7497 -12.0365)"><rect class="cls-1" x="501.1478" y="12.7615" width="45.5563" height="51.6049"/></clipPath><clipPath id="clip-path-2" transform="translate(-16.7497 -12.0365)"><polygon class="cls-1" points="501.148 64.366 626.338 64.366 626.338 12.899 501.148 12.762 501.148 64.366"/></clipPath><clipPath id="clip-path-3" transform="translate(-16.7497 -12.0365)"><rect class="cls-1" x="566.8737" y="12.8987" width="59.464" height="27.1859"/></clipPath></defs><polygon class="cls-2" points="218.249 52.542 230.614 52.546 230.618 34.846 235.213 30.034 250.241 52.551 264.757 52.555 243.807 21.668 263.512 1.083 249.07 1.08 230.622 20.923 230.628 1.075 218.263 1.071 218.249 52.542 218.249 52.542"/><polygon class="cls-2" points="268.607 52.556 280.605 52.559 280.615 19.53 280.984 19.53 300.527 52.565 312.969 52.568 312.983 1.097 300.985 1.094 300.977 34.125 300.533 34.125 280.988 1.088 268.621 1.085 268.607 52.556 268.607 52.556"/><polygon class="cls-2" points="332.813 52.573 332.827 1.102 320.388 1.099 320.374 52.57 332.813 52.573 332.813 52.573"/><path class="cls-2" d="M434.08,13.1628c-16.3729,21.1013-38.5939,37.5362-64.5164,40.1214l.012-40.1389-12.4416-.0034-.014,51.4693,4.6648.0012c39.03.0106,68.3619-24.1971,87.1072-51.4457l-14.812-.0039Z" transform="translate(-16.7497 -12.0365)"/><path class="cls-2" d="M440.1419,47.9714a8.9613,8.9613,0,1,0,8.884,8.9644,8.8344,8.8344,0,0,0-8.884-8.9644M440.138,64.56a7.5917,7.5917,0,1,1,7.4829-7.6246A7.4017,7.4017,0,0,1,440.138,64.56" transform="translate(-16.7497 -12.0365)"/><path class="cls-2" d="M443.9913,55.0081c0-1.7769-1.3311-2.8885-3.33-2.8891l-3.7775-.001-.004,9.4057,1.6289,0,.002-3.6295,1.4071,0,2.5163,3.63,1.8507,0-2.59-3.7041a2.7453,2.7453,0,0,0,2.2964-2.8135m-5.48,1.4794V53.6l2.2225.0005a1.4546,1.4546,0,1,1,0,2.8881l-2.2225-.0006Z" transform="translate(-16.7497 -12.0365)"/><path class="cls-2" d="M102.8934,12.0365c-14.96-.0041-25.4778,11.0276-25.482,26.877-.0044,15.8473,10.5075,26.8847,25.4674,26.8887,15.2557.0042,25.48-10.8059,25.4842-26.8751.0042-16.071-10.2139-26.8865-25.47-26.8906m.0621,43.6945c-7.9246-.0022-12.8095-6.447-12.8067-16.8141.0027-10.4429,4.8912-16.8852,12.8159-16.8832,7.8508.0022,12.7682,6.4472,12.7328,16.89-.0349,10.2659-4.8931,16.8035-12.742,16.8073" transform="translate(-16.7497 -12.0365)"/><path class="cls-2" d="M192.7861,64.5676l2.9626-9.3289,18.9592.005,0,.1479,3.0363,9.1826,13.1072.0036L212.2749,13.1016l-13.4769-.0037L180.2705,64.5642l12.5156.0034Zm5.8548-18.1421.0742-.2958L205.09,26.1348l.37,0,6.3641,20.2939-13.1831-.0034Z" transform="translate(-16.7497 -12.0365)"/><path class="cls-2" d="M176.1983,57.5275a56.0036,56.0036,0,0,0-.6634-7.4051c-.74-5.0368-2.962-7.9255-7.7-9.4077l0-.3717c5.9244-1.997,9.1834-6.2914,9.1852-12.5111.0024-8.962-7.1051-14.74-17.9918-14.7429l-25.253-.0069-.014,51.4693,12.4417.0034.0051-19.4028,8.59.0021c5.3324.0014,8.146,2.3726,8.8121,7.5553.2954,1.779.4427,3.78.59,5.4825.2208,3.036.4441,5.85,1.2573,6.3681l12.22.0032v-.2958c-1.111-.5937-1.3321-3.1842-1.4792-6.74M156.7274,35.9709l-10.5169-.0028.0034-13.1072,10.8127.003c4.7388.0012,7.5523,2.4463,7.5511,6.6675-.001,4.0731-2.89,6.4409-7.85,6.4395" transform="translate(-16.7497 -12.0365)"/><polygon class="cls-2" points="0 52.483 11.108 52.486 11.118 16.051 11.638 16.051 22.959 52.49 31.992 52.492 43.482 16.06 43.926 16.06 43.916 52.495 55.321 52.498 55.335 1.027 38.376 1.023 28 35.606 27.628 35.606 16.899 1.017 0.014 1.012 0 52.483 0 52.483"/><g class="cls-3"><path class="cls-2" d="M543.5007,26.0938l2.1109-5.2681a.7031.7031,0,0,0-.9139-.914L539.42,22.0164a.7092.7092,0,0,0-.3928.3941L537.31,26.716a.7125.7125,0,0,1-.1559.2369L524.4258,39.68a.7012.7012,0,0,1-.9925,0L510.7,26.9441a.7109.7109,0,0,1-.1559-.2356l-1.7232-4.2993a.7024.7024,0,0,0-.3915-.3915l-5.2719-2.106a.7029.7029,0,0,0-.9127.914l2.11,5.2681a.704.704,0,0,0,.39.3915l4.308,1.7307a.6908.6908,0,0,1,.2357.1546L522.0143,41.1a.7037.7037,0,0,1,0,.9926l-8.828,8.8279a.709.709,0,0,1-.2369.1559l-7.9925,3.197a.6819.6819,0,0,0-.2357.1559l-1.6758,1.6758a3.4947,3.4947,0,0,0-.3666,4.5162.687.687,0,0,1-.0848.884L501.422,62.68a.7017.7017,0,0,0,.0012.9938l.4165.4164a.7027.7027,0,0,0,.9937,0l35.7346-35.722a.714.714,0,0,1,.2356-.1559l4.3055-1.7269a.7062.7062,0,0,0,.3916-.3915" transform="translate(-16.7497 -12.0365)"/><path class="cls-2" d="M505.379,62.0824a.71.71,0,0,0,.2419,1.1584,3.52,3.52,0,0,0,3.8-.7669l1.6658-1.6658a.741.741,0,0,0,.1559-.2357l1.63-4.0723a.7026.7026,0,0,0-1.15-.7569Z" transform="translate(-16.7497 -12.0365)"/><path class="cls-2" d="M531.7348,21.049l1.2045-7.2881a.7012.7012,0,0,0-.9277-.78,1.8469,1.8469,0,0,0-1.0387.93,1.9949,1.9949,0,0,0,.0736,1.4226,2.6464,2.6464,0,0,0-1.6147.4789,1.5419,1.5419,0,0,0-.4028,2.2194,1.674,1.674,0,0,0,2.5362.2818c-.2681,1.4676-1,2.091-1.7544,2.0873a1.7141,1.7141,0,0,1-1.3142-.5287.67.67,0,0,0-.9115-.0187,2.2177,2.2177,0,0,1-1.5124.5474,2.0561,2.0561,0,0,1-1.818-2.1833A3.6971,3.6971,0,0,0,526,18.746a1.74,1.74,0,0,0,1.7033-1.8466,1.5727,1.5727,0,0,0-1.4439-1.5537.6922.6922,0,0,1-.5461-.7656,1.7586,1.7586,0,0,0-.0561-.601,1.8338,1.8338,0,0,0-3.4539,0,1.7094,1.7094,0,0,0-.0549.6.6963.6963,0,0,1-.5474.7668,1.5719,1.5719,0,0,0-1.4464,1.5537,1.7419,1.7419,0,0,0,1.7045,1.8466,3.6665,3.6665,0,0,0,1.7419-.5287,2.0577,2.0577,0,0,1-1.8142,2.1833,2.2129,2.2129,0,0,1-1.5087-.5474.6707.6707,0,0,0-.9115.0175,1.7072,1.7072,0,0,1-1.3117.53c-.7544.0037-1.4963-.62-1.7594-2.0873a1.6673,1.6673,0,0,0,2.53-.2818,1.5372,1.5372,0,0,0-.3965-2.2194,2.6668,2.6668,0,0,0-1.6148-.4789,2.0278,2.0278,0,0,0,.0748-1.4226,1.8505,1.8505,0,0,0-1.0386-.93.7022.7022,0,0,0-.9289.7805L516.12,21.049a.7042.7042,0,0,0,.6945.5873h14.227a.7019.7019,0,0,0,.6933-.5873" transform="translate(-16.7497 -12.0365)"/><path class="cls-2" d="M516.4092,22.8577c.1259.7482.2606,1.4888.404,2.2369a.712.712,0,0,0,.6945.5773h12.8367a.7127.7127,0,0,0,.697-.5773c.1409-.7493.2743-1.4887.399-2.2381a.7088.7088,0,0,0-.697-.823H517.1062a.7085.7085,0,0,0-.697.8242" transform="translate(-16.7497 -12.0365)"/><path class="cls-2" d="M544.419,60.1337a.7089.7089,0,0,0,1.1571-.2407,3.5005,3.5005,0,0,0-.7681-3.7905h.005l-1.6746-1.6709a.7.7,0,0,0-.2356-.1558l-4.0586-1.6222a.7029.7029,0,0,0-.7569,1.1509Z" transform="translate(-16.7497 -12.0365)"/><path class="cls-2" d="M543.3932,62.4692l1.6234,1.6222a.7037.7037,0,0,0,.9925.0025l.42-.4177a.7021.7021,0,0,0,0-.995l-20.328-20.3318a.7028.7028,0,0,0-.9937,0l-.4227.4252a.703.703,0,0,0,0,.9938l8.5811,8.5736a.6759.6759,0,0,1,.1558.2369l3.1933,7.9925a.7392.7392,0,0,0,.1559.237l1.672,1.667a3.493,3.493,0,0,0,4.95-.0062" transform="translate(-16.7497 -12.0365)"/><path class="cls-2" d="M508.8469,44.4138c-1.0124,0-1.6234-.5038-1.6234-1.3255,0-.8441.611-1.3778,1.6134-1.3778s1.6011.5337,1.6011,1.3778c0,.8105-.6185,1.3255-1.5911,1.3255m-.02-3.6709c-.8429,0-1.3467-.4189-1.3467-1.08s.5038-1.0885,1.3467-1.0885,1.3329.4264,1.3329,1.0885-.49,1.08-1.3329,1.08m.02,4.7569c1.6447,0,3.0075-.7793,3.0075-2.38a1.9332,1.9332,0,0,0-1.5661-1.9314v-.0324a1.6052,1.6052,0,0,0,1.2145-1.5786c0-1.2481-1.0873-2.0237-2.6758-2.0237-1.58,0-2.6783.808-2.6783,2.0449a1.6029,1.6029,0,0,0,1.2244,1.5811v.03a1.97,1.97,0,0,0-1.5761,1.9426c0,1.5686,1.404,2.3479,3.05,2.3479m-5.015-.182h0a.7022.7022,0,0,0,.7033-.702V37.6594h-1.096c-.1721,1.0786-1.025,1.4938-2.07,1.5262v.9364h1.0562a.7024.7024,0,0,1,.7032.7032v3.7906a.703.703,0,0,0,.7032.702" transform="translate(-16.7497 -12.0365)"/><path class="cls-2" d="M545.2857,45.3175h.0037a.7018.7018,0,0,0,.702-.702V37.66h-1.1c-.17,1.0748-1.0237,1.4913-2.0686,1.5224v.9377h1.0574a.7043.7043,0,0,1,.7032.7045v3.79a.701.701,0,0,0,.702.702m-6.39-3.5623a1.5636,1.5636,0,0,1,.0112-3.1272,1.5277,1.5277,0,0,1,1.59,1.5586,1.5049,1.5049,0,0,1-1.601,1.5686m.0324,3.7444a2.7471,2.7471,0,0,0,2.07-.7906,4.4375,4.4375,0,0,0,.9613-3.2c0-1.5686-.3092-2.6359-1.1-3.2868a3.0069,3.0069,0,0,0-1.9851-.6733,2.6814,2.6814,0,0,0-2.8591,2.6472,2.5992,2.5992,0,0,0,2.6571,2.6346,2.3452,2.3452,0,0,0,1.9414-.9813h.0212a3.5275,3.5275,0,0,1-.5224,2.0063,1.3957,1.3957,0,0,1-1.217.576,1.25,1.25,0,0,1-1.3329-.96h-1.3766A2.5239,2.5239,0,0,0,538.9278,45.5" transform="translate(-16.7497 -12.0365)"/></g><g class="cls-4"><path class="cls-2" d="M577.4237,48.4748a9.7855,9.7855,0,0,1-1.1982,2.63q-1.6945,3.0822-2.2108,4.1895a10.1912,10.1912,0,0,0-1.1982,3.8716q0,2.5082.1359,5.1633h-1.87q.1254-2.5212.1272-5.187a11.1556,11.1556,0,0,0-1.1209-4.0549q-.6341-1.4495-2.0935-4.19a11.7434,11.7434,0,0,1-1.121-2.4227h1.9975a28.9539,28.9539,0,0,0,1.68,3.8778,15.0081,15.0081,0,0,1,1.6808,4.707h.0972a14.7229,14.7229,0,0,1,1.6023-4.6272,21.0782,21.0782,0,0,0,1.6022-3.9576Z" transform="translate(-16.7497 -12.0365)"/><path class="cls-2" d="M588.5562,62.49l-.0586,1.8392h-7.8517q.1365-3.7762.1372-8.3292,0-4.2869-.1372-7.525h7.3654l-.0786,1.8142q-2.68-.1458-5.6795-.1459.06,1.8853.0586,5.1011,2.59,0,4.6172-.1459v1.8142q-2.1621-.1084-4.6172-.11,0,3.129.0885,5.8691,3.2338,0,6.1559-.1821" transform="translate(-16.7497 -12.0365)"/><path class="cls-2" d="M598.8323,57.6067q-2.2893-7.1464-2.2893-7.5973h-.1073q0,.3778-2.3665,7.5973Zm3.7307,6.722h-2.0562a32.1181,32.1181,0,0,0-1.2269-5.126h-5.621a30.5292,30.5292,0,0,0-1.207,5.126h-1.9688q0-.4507,2.5137-7.7868a67.9067,67.9067,0,0,0,2.5138-8.0674H597.77a68.87,68.87,0,0,0,2.3965,7.9514,72.2365,72.2365,0,0,1,2.3966,7.9028" transform="translate(-16.7497 -12.0365)"/><path class="cls-2" d="M612.3014,52.9072q0-2.8991-3.1359-2.8978a9.3768,9.3768,0,0,0-1.88.1584q.0692,2.1173.0685,5.7594c.3891.0149.7631.0237,1.12.0237q3.8286,0,3.828-3.0437m2.9813,11.4215h-1.88q-.9352-3.4938-1.3641-4.6272a3.5669,3.5669,0,0,0-1.2369-1.8392,4.1133,4.1133,0,0,0-1.9576-.3279q-.8268,0-1.4714.0237,0,3.9333.1173,6.7706h-1.8118q.1459-3.7762.1459-8.3292,0-4.2869-.1459-7.525h1.3728q.44,0,1.111-.0361c.4477-.025.9626-.0362,1.5387-.0362q4.2681,0,4.2668,3.6771a4.4323,4.4323,0,0,1-2.3965,4.298V56.5a3.2641,3.2641,0,0,1,1.7344,1.8628,62.683,62.683,0,0,1,1.9776,5.9664" transform="translate(-16.7497 -12.0365)"/><path class="cls-2" d="M626.3378,60.2252q0,4.5055-5.0162,4.505a9.3541,9.3541,0,0,1-3.2544-.5237l.3417-1.9115a7.845,7.845,0,0,0,3.1072.707q3.3105,0,3.3118-2.3379a2.7325,2.7325,0,0,0-.8567-2.0225,11.8551,11.8551,0,0,0-2.2606-1.4975,9.3065,9.3065,0,0,1-2.4838-1.8142,4.74,4.74,0,0,1,.02-5.808,4.0028,4.0028,0,0,1,3.1658-1.2668,8.9531,8.9531,0,0,1,3.1746.3778l-.2332,1.9364a8.4813,8.4813,0,0,0-3.1471-.5848q-2.5025,0-2.5025,2.0948a2.2312,2.2312,0,0,0,.7207,1.692,12.2753,12.2753,0,0,0,2.0648,1.2905,10.1456,10.1456,0,0,1,2.63,1.8753,4.7034,4.7034,0,0,1,1.2182,3.2881" transform="translate(-16.7497 -12.0365)"/></g><g class="cls-5"><path class="cls-2" d="M600.6067,29.8994a9.4161,9.4161,0,0,1-3.0162,6.8055q-3.015,3.0243-8.6921,3.38l-.4314-2.2893a13.5724,13.5724,0,0,0,7.0462-2.2556,5.918,5.918,0,0,0,2.5324-4.99,4.4144,4.4144,0,0,0-1.8915-4.0674A10.5048,10.5048,0,0,0,590.6416,25.3l.298-2.2157a9.134,9.134,0,0,0,4.722-1.0985,3.3756,3.3756,0,0,0,1.8478-3.0175,2.84,2.84,0,0,0-1.1621-2.5686,6.7062,6.7062,0,0,0-3.6047-.7643,11.6812,11.6812,0,0,0-3.2033.3928l.1783-2.6272a13.5034,13.5034,0,0,1,4.3043-.5025,5.7085,5.7085,0,0,1,4.1808,1.4451,4.66,4.66,0,0,1,1.4676,3.4352q0,4.096-3.4439,5.5275v.1882a5.3286,5.3286,0,0,1,3.1372,2.1584,7.0507,7.0507,0,0,1,1.2431,4.2469" transform="translate(-16.7497 -12.0365)"/><path class="cls-2" d="M575.9892,40.0838H573.145c.15-3.5947.0973-7.3254.0973-11.1895,0-4.48.389-9.2419.2406-11.3716l-5.8865,3.8155-.722-1.67,7.3567-6.7706h1.7581q-.2038,8.2518-.2045,15.9963,0,5.4669.2045,11.1895" transform="translate(-16.7497 -12.0365)"/><path class="cls-2" d="M626.3375,26.0037A19.5481,19.5481,0,0,1,623.96,36.04a7.4191,7.4191,0,0,1-6.7083,4.0449,7.0264,7.0264,0,0,1-6.3728-3.697,18.0666,18.0666,0,0,1-2.217-9.41,19.5009,19.5009,0,0,1,2.3791-10.0337,7.4114,7.4114,0,0,1,6.7082-4.0449,7.0279,7.0279,0,0,1,6.37,3.6932,18.0692,18.0692,0,0,1,2.2182,9.4115m-2.2706,1.1172c0-3.2755-.2806-6.5773-1.2768-8.5586-1-1.9775-3.4277-3.581-5.1858-3.5474-1.69,0-4.4764,2.2868-5.3941,4.1659a17.701,17.701,0,0,0-1.5623,7.39,17.4283,17.4283,0,0,0,1.596,7.8628c.9988,1.98,3.4975,3.7257,5.2556,3.6946a6.2283,6.2283,0,0,0,4.7207-2.9838,17.9289,17.9289,0,0,0,1.8467-8.0238" transform="translate(-16.7497 -12.0365)"/></g></svg>